<svg width="170.617188" height="28.560059" viewBox="0 0 170.617 28.5601" fill="none" xmlns="http://www.w3.org/2000/svg" xmlns:xlink="http://www.w3.org/1999/xlink">
	<desc>
			Created with Pixso.
	</desc>
	<defs/>
	<path id="Positivus" d="M0 28L0 0L11.11 0Q13.67 0 15.67 1.04Q16.93 1.65 17.84 2.6Q18.4 3.19 18.83 3.91Q20 5.75 20 8.35L20 8.87Q20 11.36 18.9 13.19Q18.85 13.27 18.8 13.35Q18.26 14.22 17.55 14.9Q16.72 15.69 15.64 16.24Q13.64 17.24 11.11 17.24L4.32 17.24L4.32 28L0 28ZM71.37 5.6Q70.64 5.6 70.04 5.31L70.04 5.31Q69.66 5.13 69.33 4.83C68.8 4.3 68.53 3.62 68.53 2.79C68.53 1.97 68.8 1.3 69.33 0.79Q69.7 0.44 70.14 0.25L70.14 0.25Q70.7 0 71.37 0Q72.19 0 72.81 0.34Q73.14 0.52 73.41 0.79C73.95 1.3 74.21 1.97 74.21 2.79C74.21 3.62 73.95 4.3 73.41 4.83Q73.18 5.06 72.91 5.21L72.91 5.21Q72.25 5.6 71.37 5.6ZM99.93 5.6Q99.2 5.6 98.6 5.31L98.6 5.31Q98.22 5.13 97.89 4.83C97.36 4.3 97.09 3.62 97.09 2.79C97.09 1.97 97.36 1.3 97.89 0.79Q98.26 0.44 98.7 0.25L98.7 0.25Q99.26 0 99.93 0C100.76 0 101.44 0.26 101.97 0.79C102.5 1.3 102.77 1.97 102.77 2.79C102.77 3.62 102.5 4.3 101.97 4.83C101.44 5.34 100.76 5.6 99.93 5.6ZM86.93 28C85.73 28 84.77 27.64 84.05 26.91C83.36 26.2 83.01 25.24 83.01 24.04L83.01 11.75L77.57 11.75L77.57 8.27L83.01 8.27L83.01 1.75L87.13 1.75L87.13 8.27L93.01 8.27L93.01 11.75L87.13 11.75L87.13 23.31C87.13 24.12 87.5 24.52 88.25 24.52L92.37 24.52L92.37 28L86.93 28ZM4.32 13.31L10.67 13.31Q12.77 13.31 14.08 12.31L14.08 12.31Q14.2 12.21 14.32 12.12Q14.73 11.75 15.01 11.31Q15.67 10.29 15.67 8.83L15.67 8.43Q15.67 6.9 14.96 5.85L14.96 5.85Q14.69 5.45 14.32 5.12Q14.2 5.02 14.08 4.93L14.08 4.93Q12.77 3.91 10.67 3.91L4.32 3.91L4.32 13.31ZM32.91 28.56C30.94 28.56 29.18 28.16 27.63 27.35C26.11 26.53 24.91 25.35 24.03 23.83C23.15 22.31 22.71 20.52 22.71 18.43L22.71 17.83C22.71 15.75 23.15 13.97 24.03 12.48Q24.76 11.22 25.78 10.28L25.78 10.28Q26.61 9.51 27.63 8.95C29.18 8.13 30.94 7.72 32.91 7.72C34.88 7.72 36.64 8.13 38.19 8.95Q39.34 9.57 40.24 10.44Q41.16 11.32 41.83 12.48C42.71 13.97 43.15 15.75 43.15 17.83L43.15 18.43C43.15 20.52 42.71 22.31 41.83 23.83Q41.16 24.99 40.24 25.87Q39.34 26.74 38.19 27.35C36.64 28.16 34.88 28.56 32.91 28.56ZM56.36 28.56C53.85 28.56 51.77 28 50.12 26.87C48.47 25.75 47.45 24.06 47.08 21.79L50.92 20.87C51.13 21.97 51.49 22.83 52 23.48C52.5 24.12 53.13 24.57 53.88 24.83C54.65 25.1 55.48 25.24 56.36 25.24C57.66 25.24 58.66 24.98 59.36 24.48C60.08 23.97 60.44 23.31 60.44 22.52C60.44 21.72 60.11 21.13 59.44 20.75C58.77 20.38 57.79 20.08 56.48 19.83L55.12 19.6C53.79 19.35 52.57 19.01 51.48 18.56C50.39 18.1 49.52 17.48 48.88 16.68Q48.81 16.58 48.74 16.49Q47.92 15.33 47.92 13.6C47.92 11.73 48.61 10.29 50 9.27Q52.08 7.72 55.52 7.72Q58.84 7.72 60.96 9.24Q62.01 9.95 62.7 10.92Q63.43 11.96 63.76 13.27L59.92 14.35C59.68 13.16 59.17 12.31 58.4 11.83Q57.24 11.08 55.52 11.08C54.4 11.08 53.52 11.29 52.88 11.72C52.24 12.12 51.92 12.69 51.92 13.43C51.92 14.24 52.23 14.82 52.84 15.2C53.48 15.57 54.33 15.85 55.4 16.04L56.8 16.27C58.21 16.52 59.5 16.85 60.68 17.27C61.85 17.7 62.77 18.31 63.44 19.12C64.13 19.91 64.48 20.98 64.48 22.31C64.48 24.29 63.75 25.82 62.28 26.91C60.81 28.01 58.84 28.56 56.36 28.56ZM162.49 28.56C159.99 28.56 157.91 28 156.25 26.87Q155.55 26.4 155.01 25.79Q153.61 24.24 153.21 21.79L157.05 20.87C157.27 21.97 157.63 22.83 158.13 23.48C158.64 24.12 159.27 24.57 160.01 24.83C160.79 25.1 161.61 25.24 162.49 25.24C163.8 25.24 164.8 24.98 165.49 24.48Q166.15 24.01 166.41 23.38Q166.57 22.98 166.57 22.52C166.57 21.72 166.24 21.13 165.57 20.75C164.91 20.38 163.92 20.08 162.61 19.83L161.25 19.6C159.92 19.35 158.71 19.01 157.61 18.56C156.52 18.1 155.65 17.48 155.01 16.68C154.37 15.87 154.05 14.85 154.05 13.6C154.05 11.73 154.75 10.29 156.13 9.27C157.52 8.24 159.36 7.72 161.65 7.72C163.87 7.72 165.68 8.22 167.09 9.24Q168.14 9.95 168.83 10.92Q169.56 11.96 169.89 13.27L166.05 14.35C165.81 13.16 165.31 12.31 164.53 11.83C163.76 11.33 162.8 11.08 161.65 11.08C160.53 11.08 159.65 11.29 159.01 11.72C158.37 12.12 158.05 12.69 158.05 13.43C158.05 14.24 158.36 14.82 158.97 15.2C159.61 15.57 160.47 15.85 161.53 16.04L162.93 16.27C164.35 16.52 165.64 16.85 166.81 17.27C167.99 17.7 168.91 18.31 169.57 19.12C170.27 19.91 170.61 20.98 170.61 22.31C170.61 24.29 169.88 25.82 168.41 26.91C166.95 28.01 164.97 28.56 162.49 28.56ZM69.29 28L69.29 8.27L73.41 8.27L73.41 28L69.29 28ZM97.85 28L97.85 8.27L101.97 8.27L101.97 28L97.85 28ZM112.64 28L106 8.27L110.36 8.27L115.6 24.96L116.24 24.96L121.48 8.27L125.85 8.27L119.2 28L112.64 28ZM137.4 28.35C135.91 28.35 134.58 28.02 133.4 27.35C132.23 26.69 131.31 25.74 130.64 24.52C129.98 23.29 129.64 21.82 129.64 20.12L129.64 8.27L133.76 8.27L133.76 19.83Q133.76 22.39 135.04 23.63L135.04 23.64C135.89 24.43 137.08 24.83 138.6 24.83Q140.26 24.83 141.49 24.1L141.49 24.1Q142.12 23.73 142.64 23.16C143.68 22.01 144.2 20.37 144.2 18.24L144.2 8.27L148.32 8.27L148.32 28L144.28 28L144.28 25.04L143.64 25.04C143.27 25.83 142.6 26.6 141.64 27.31C140.68 28.01 139.27 28.35 137.4 28.35ZM32.91 24.87Q34.81 24.87 36.21 24.03Q36.81 23.67 37.31 23.16Q37.54 22.92 37.74 22.66Q39.03 20.98 39.03 18.31L39.03 17.95C39.03 15.9 38.47 14.3 37.35 13.16C36.23 11.98 34.75 11.39 32.91 11.39C31.12 11.39 29.66 11.98 28.51 13.16Q28.34 13.33 28.18 13.53Q26.83 15.19 26.83 17.95L26.83 18.31Q26.83 21.06 28.16 22.75L28.16 22.75Q28.33 22.96 28.51 23.16C29.66 24.3 31.12 24.87 32.91 24.87Z" fill="#000000" fill-opacity="1.000000" fill-rule="evenodd"/>
</svg>
