<svg width="15.000000" height="15.000000" viewBox="0 0 15 15" fill="none" xmlns="http://www.w3.org/2000/svg" xmlns:xlink="http://www.w3.org/1999/xlink">
	<desc>
			Created with Pixso.
	</desc>
	<defs/>
	<path id="linkedin" d="M1.82 3.6C0.79 3.6 0 2.81 0 1.82C0 0.84 0.79 0 1.82 0C2.8 0 3.59 0.84 3.59 1.82C3.59 2.81 2.8 3.6 1.82 3.6ZM11.86 15L15 15L15 9.51C15 6.84 14.39 4.73 11.26 4.73C9.76 4.73 8.73 5.57 8.31 6.37L8.27 6.37L8.27 5.01L5.32 5.01L5.32 15L8.41 15L8.41 10.07C8.41 8.76 8.64 7.5 10.28 7.5C11.86 7.5 11.86 9 11.86 10.12L11.86 15ZM3.36 15L0.28 15L0.28 5.01L3.36 5.01L3.36 15Z" fill="#000000" fill-opacity="1.000000" fill-rule="evenodd"/>
</svg>
