<svg width="139.890625" height="23.006836" viewBox="0 0 139.891 23.0068" fill="none" xmlns="http://www.w3.org/2000/svg" xmlns:xlink="http://www.w3.org/1999/xlink">
	<desc>
			Created with Pixso.
	</desc>
	<defs/>
	<path id="Positivus" d="M0 22.55L0 0L9.11 0Q11.21 0 12.85 0.83C13.97 1.37 14.83 2.14 15.44 3.15Q16.39 4.63 16.39 6.73L16.39 7.15Q16.39 9.1 15.54 10.55Q15.48 10.65 15.41 10.76Q15 11.41 14.47 11.92Q13.75 12.62 12.82 13.08Q11.18 13.88 9.11 13.88L3.54 13.88L3.54 22.55L0 22.55ZM58.52 4.51C57.86 4.51 57.31 4.3 56.85 3.89C56.41 3.46 56.19 2.92 56.19 2.25C56.19 1.58 56.41 1.05 56.85 0.64C57.31 0.21 57.86 0 58.52 0C59.2 0 59.75 0.21 60.19 0.64C60.63 1.05 60.85 1.58 60.85 2.25C60.85 2.92 60.63 3.46 60.19 3.89C59.75 4.3 59.2 4.51 58.52 4.51ZM81.93 4.51C81.28 4.51 80.72 4.3 80.26 3.89Q80.02 3.66 79.87 3.38Q79.6 2.89 79.6 2.25Q79.6 1.58 79.9 1.09Q80.04 0.84 80.26 0.64C80.72 0.21 81.28 0 81.93 0C82.61 0 83.17 0.21 83.6 0.64C84.04 1.05 84.26 1.58 84.26 2.25C84.26 2.92 84.04 3.46 83.6 3.89C83.17 4.3 82.61 4.51 81.93 4.51ZM71.27 22.55C70.29 22.55 69.5 22.26 68.91 21.68C68.34 21.1 68.06 20.33 68.06 19.36L68.06 9.47L63.6 9.47L63.6 6.66L68.06 6.66L68.06 1.41L71.44 1.41L71.44 6.66L76.26 6.66L76.26 9.47L71.44 9.47L71.44 18.78C71.44 19.42 71.74 19.75 72.35 19.75L75.73 19.75L75.73 22.55L71.27 22.55ZM3.54 10.73L8.75 10.73Q10.5 10.73 11.59 9.87Q11.67 9.82 11.74 9.76C12.48 9.11 12.85 8.23 12.85 7.12L12.85 6.79Q12.85 5.59 12.3 4.75L12.3 4.75Q12.06 4.4 11.74 4.12Q11.67 4.06 11.59 4L11.59 4Q10.5 3.15 8.75 3.15L3.54 3.15L3.54 10.73ZM26.98 23C25.36 23 23.92 22.68 22.65 22.04C21.41 21.37 20.42 20.42 19.7 19.2Q18.62 17.36 18.62 14.85L18.62 14.37Q18.62 11.85 19.7 10.05C20.42 8.82 21.41 7.88 22.65 7.21C23.92 6.55 25.36 6.21 26.98 6.21C28.6 6.21 30.04 6.55 31.31 7.21C32.58 7.88 33.57 8.82 34.3 10.05C35.02 11.25 35.38 12.69 35.38 14.37L35.38 14.85C35.38 16.53 35.02 17.98 34.3 19.2C33.57 20.42 32.58 21.37 31.31 22.04C30.04 22.68 28.6 23 26.98 23ZM46.21 23Q43.13 23 41.09 21.65C39.74 20.75 38.91 19.38 38.6 17.56L41.75 16.82C41.92 17.7 42.22 18.39 42.63 18.91C43.05 19.42 43.56 19.79 44.17 20Q45.13 20.33 46.21 20.33C47.28 20.33 48.1 20.12 48.67 19.71C49.26 19.31 49.55 18.78 49.55 18.14C49.55 17.49 49.28 17.02 48.73 16.72C48.19 16.42 47.38 16.17 46.31 15.98L45.19 15.78C44.1 15.59 43.1 15.31 42.21 14.95C41.31 14.58 40.6 14.08 40.08 13.43Q40 13.34 39.93 13.24L39.93 13.24Q39.29 12.32 39.29 10.95C39.29 9.45 39.86 8.29 40.99 7.47C42.13 6.63 43.64 6.21 45.52 6.21C47.33 6.21 48.82 6.62 49.98 7.44C51.16 8.23 51.93 9.32 52.28 10.69L49.13 11.56C48.93 10.6 48.51 9.92 47.88 9.53C47.25 9.12 46.46 8.92 45.52 8.92Q44.14 8.92 43.35 9.44C42.83 9.76 42.57 10.22 42.57 10.82C42.57 11.47 42.82 11.94 43.32 12.24C43.85 12.54 44.55 12.77 45.42 12.92L46.57 13.11C47.73 13.3 48.79 13.57 49.75 13.91C50.71 14.26 51.47 14.75 52.01 15.4C52.58 16.04 52.87 16.9 52.87 17.98C52.87 19.56 52.26 20.8 51.06 21.68C49.86 22.56 48.24 23 46.21 23ZM133.23 23C131.17 23 129.47 22.55 128.11 21.65C126.76 20.75 125.93 19.38 125.62 17.56L128.77 16.82C128.94 17.7 129.24 18.39 129.65 18.91C130.07 19.42 130.58 19.79 131.19 20C131.83 20.22 132.51 20.33 133.23 20.33C134.3 20.33 135.12 20.12 135.69 19.71C136.28 19.31 136.57 18.78 136.57 18.14C136.57 17.49 136.3 17.02 135.75 16.72C135.21 16.42 134.4 16.17 133.33 15.98L132.21 15.78C131.12 15.59 130.12 15.31 129.23 14.95C128.33 14.58 127.62 14.08 127.1 13.43C126.57 12.79 126.31 11.96 126.31 10.95C126.31 9.45 126.88 8.29 128.01 7.47C129.15 6.63 130.66 6.21 132.54 6.21C134.35 6.21 135.84 6.62 137 7.44C138.18 8.23 138.94 9.32 139.3 10.69L136.15 11.56C135.95 10.6 135.53 9.92 134.9 9.53C134.27 9.12 133.48 8.92 132.54 8.92C131.62 8.92 130.9 9.09 130.37 9.44C129.85 9.76 129.59 10.22 129.59 10.82C129.59 11.47 129.84 11.94 130.34 12.24C130.87 12.54 131.57 12.77 132.44 12.92L133.59 13.11C134.75 13.3 135.81 13.57 136.77 13.91C137.73 14.26 138.49 14.75 139.03 15.4C139.6 16.04 139.89 16.9 139.89 17.98C139.89 19.56 139.28 20.8 138.08 21.68C136.88 22.56 135.26 23 133.23 23ZM56.82 22.55L56.82 6.66L60.19 6.66L60.19 22.55L56.82 22.55ZM80.23 22.55L80.23 6.66L83.6 6.66L83.6 22.55L80.23 22.55ZM92.36 22.55L86.91 6.66L90.49 6.66L94.78 20.1L95.31 20.1L99.6 6.66L103.18 6.66L97.74 22.55L92.36 22.55ZM112.66 22.84C111.43 22.84 110.34 22.57 109.38 22.04C108.42 21.5 107.66 20.74 107.11 19.75C106.57 18.76 106.29 17.58 106.29 16.2L106.29 6.66L109.67 6.66L109.67 15.98C109.67 17.35 110.02 18.37 110.72 19.04C111.42 19.68 112.39 20 113.64 20C115.02 20 116.12 19.55 116.95 18.65Q118.23 17.27 118.23 14.69L118.23 6.66L121.61 6.66L121.61 22.55L118.3 22.55L118.3 20.17L117.77 20.17C117.47 20.81 116.92 21.42 116.13 22C115.35 22.56 114.19 22.84 112.66 22.84ZM26.98 20.04C28.47 20.04 29.67 19.58 30.59 18.65Q30.81 18.43 30.99 18.19L30.99 18.19Q32 16.85 32 14.75L32 14.46C32 12.81 31.54 11.52 30.62 10.6Q30.23 10.2 29.77 9.91L29.77 9.91Q28.6 9.18 26.98 9.18C25.52 9.18 24.32 9.65 23.37 10.6Q23.21 10.77 23.06 10.95Q22 12.29 22 14.46L22 14.75Q22 16.91 23.04 18.27Q23.2 18.47 23.37 18.65C24.32 19.58 25.52 20.04 26.98 20.04Z" fill="#FFFFFF" fill-opacity="1.000000" fill-rule="evenodd"/>
</svg>
